<?xml version="1.0" encoding="UTF-8"?>
<svg width="550px" height="515px" viewBox="0 0 550 515" version="1.1" xmlns="http://www.w3.org/2000/svg" xmlns:xlink="http://www.w3.org/1999/xlink">
    <!-- Generator: Sketch 57.1 (83088) - https://sketch.com -->
    <title>Group 15</title>
    <desc>Created with Sketch.</desc>
    <g id="Welcome" stroke="none" stroke-width="1" fill="none" fill-rule="evenodd">
        <g id="Desktop" transform="translate(-792.000000, -292.000000)" fill="#82958C">
            <g id="Group-15" transform="translate(792.000000, 292.000000)">
                <path d="M156.560839,0.000862482876 C154.644264,0.0127423789 152.662404,0.118768412 151.080576,0.329003068 C147.993363,0.739268555 147.373801,0.931026752 143.869592,2.56989727 C141.761008,3.55607897 138.360458,4.99466159 136.31287,5.76764705 C130.016126,8.14470045 128.654945,8.99243671 123.835653,13.537727 C120.351505,16.8237111 118.562433,18.2348377 114.218942,21.1205516 C111.283878,23.0705351 107.713499,25.5776854 106.285632,26.6908919 C103.145905,29.1387452 98.8255627,33.3805925 96.4960579,36.3026619 C92.7615726,40.9869244 90.4927291,42.812438 87.3835488,43.6406137 C84.2187457,44.4836026 80.5638497,46.4784007 76.2851365,49.6986421 C71.6860075,53.159993 67.5476081,55.415239 62.9847397,56.9419369 C58.9783459,58.2824364 55.8304025,58.4988976 50.7997408,57.7815006 C48.5884324,57.466126 46.19561,57.3209093 44.416044,57.3925847 C41.6615455,57.5032443 41.4751478,57.5535892 38.592104,58.9996911 C36.5443552,60.0267672 34.7570426,61.2223944 32.873119,62.8229982 C28.0285231,66.9389502 25.3994017,68.9996575 23.5712788,70.1136215 C21.4543646,71.4034706 17.7810991,72.6236744 13.40305,73.490396 C5.83159734,74.9892597 3.37247555,75.800376 1.7675178,77.3342814 C-0.0857371902,79.105553 -0.457545907,80.7208889 0.5389347,82.663864 C1.42539869,84.3922901 2.40107921,85.068739 5.61996134,86.1764511 C9.13159337,87.3849477 11.5823217,89.0038952 13.1684463,91.1644473 C14.5551279,93.0533469 14.9622336,94.2986131 14.9773663,96.7142082 C14.9925864,99.0983953 15.9885267,101.526832 17.7514544,103.478044 C19.4332513,105.339429 20.8122032,105.976038 25.5221952,107.058539 C28.2466275,107.684708 31.7098375,108.766587 34.8919469,109.988781 C37.7067821,111.069892 41.9187829,112.414384 44.4119284,113.028089 C46.8710165,113.633386 50.9592596,114.84318 53.4976861,115.715515 C56.0360663,116.587892 60.4500431,118.035318 63.3057761,118.93178 C66.1614659,119.828252 70.3791923,121.345435 72.6796445,122.302382 C74.9800567,123.25934 78.7721129,124.672504 81.104806,125.444571 C86.9886845,127.392011 87.4406371,127.590009 90.7853052,129.646504 C97.0235305,133.482047 98.2462079,133.930531 104.015733,134.506929 C106.46095,134.751136 110.24459,135.206752 112.422378,135.519336 C118.281749,136.359937 126.215828,136.536948 132.559207,135.96999 C138.597668,135.430267 140.033722,135.584562 142.451682,137.027669 C144.32767,138.14733 146.3378,140.588936 146.82889,142.342857 C147.075162,143.222556 147.127603,144.599572 146.99559,146.775258 C146.778799,150.344364 147.042351,151.212147 149.016467,153.397104 C150.769177,155.33698 151.618385,155.698133 155.107937,155.981649 C156.948881,156.131287 158.861632,156.472781 159.746517,156.80886 C162.764978,157.955681 165.789919,160.980534 166.59736,163.663239 C166.870942,164.570943 166.9948,166.37712 166.978079,169.223298 C166.960282,172.463964 167.095635,174.094522 167.558413,176.281396 C168.425912,180.380659 168.353062,181.954629 167.148887,185.323167 C165.998807,188.540338 165.965554,188.838614 166.605589,190.107439 C167.737504,192.351502 169.915303,193.806271 172.022064,193.727032 C174.459716,193.634813 177.821439,196.493729 177.800724,198.643012 C177.795434,199.215343 177.296116,200.851316 176.691505,202.279062 C174.030065,208.56404 174.12245,211.380717 177.080453,214.05353 L177.082507,214.05353 C178.124471,214.994863 178.428294,215.115328 179.784576,215.115328 C181.497668,215.115328 183.16027,214.23801 184.777111,212.483457 C186.62248,210.480873 190.812632,203.888137 192.45318,200.404444 C193.386986,198.421446 195.696714,193.684279 197.585662,189.876971 C199.644629,185.727053 201.530122,181.45334 202.296259,179.205464 C203.988626,174.239988 205.989105,169.569564 207.146803,167.88164 C207.662885,167.129117 209.676861,164.536639 211.622792,162.119928 C213.568733,159.703249 215.480103,157.09954 215.868303,156.33352 C216.256503,155.567469 216.746286,154.797942 216.956944,154.623534 C217.520873,154.157392 221.568824,153.384072 222.396052,153.584366 C222.787687,153.679135 223.498549,154.114565 223.974487,154.551512 C225.192813,155.669929 226.511626,156.273846 227.730204,156.273846 C229.253797,156.273846 231.915889,153.68868 233.266038,150.89694 C234.452333,148.443987 235.032225,147.856432 238.258573,145.836917 C240.262033,144.582873 241.128194,144.225966 242.946537,143.902625 C244.944413,143.547593 245.30486,143.555758 246.401804,143.984941 C247.075398,144.24847 247.875653,144.652757 248.177789,144.882119 C248.830658,145.377876 249.17178,147.181146 249.196468,150.246687 C249.214886,152.594157 249.629585,154.255195 250.196623,154.255195 C250.388779,154.255195 251.316094,153.788358 252.258666,153.216027 C253.201239,152.643728 254.455431,152.00184 255.045101,151.789999 C256.495158,151.268756 258.822461,149.50136 260.7929,147.4255 C262.378658,145.754938 264.046264,142.887521 264.7894,140.554664 C265.353782,138.782875 267.692612,135.613641 269.36006,134.360819 C270.833656,133.253707 272.756743,132.540608 279.814335,130.47578 C282.210558,129.774555 282.365056,129.764072 284.716329,130.152713 C286.052064,130.373636 288.740625,130.632983 290.690496,130.730944 C293.758742,130.885323 294.502795,130.830432 296.211915,130.321453 C297.298059,129.997996 299.596165,129.538861 301.3197,129.298752 C305.60073,128.702927 306.811448,128.056477 310.874666,124.199631 C317.171705,118.222453 319.924244,116.846733 325.035274,117.125075 C326.565735,117.208497 329.181077,117.604766 330.846871,118.005797 C332.512707,118.406775 336.149856,119.19729 338.928357,119.761055 C346.841521,121.366717 349.366259,122.369484 353.691943,125.627713 C355.606179,127.069556 356.893172,128.281361 357.437377,129.156762 C358.957313,131.601467 363.830521,135.21891 365.605295,135.21891 C366.654561,135.21891 368.427259,134.250606 369.319856,133.189966 C370.197481,132.14552 370.16388,132.297739 370.208882,129.30698 C370.263356,125.712505 370.748366,124.416434 372.816279,122.339426 C375.102615,120.043128 376.183659,119.679446 378.782216,120.331058 C379.80551,120.587771 381.174983,120.798169 381.825892,120.798169 C382.621162,120.798169 383.626185,121.125692 384.890145,121.796174 L386.771096,122.794189 L391.333527,122.703645 C394.289696,122.64611 396.753311,122.435227 398.338711,122.100719 C400.308138,121.685001 401.621809,121.613853 405.07226,121.736499 C408.145828,121.845207 409.819461,121.775682 410.990868,121.495748 C411.889197,121.281515 413.18228,121.100522 413.863734,121.09654 C415.712538,121.08121 416.518462,120.161486 416.518462,118.06958 L416.518462,116.470714 L414.102451,113.801799 C412.773386,112.334671 410.055028,109.553846 408.062431,107.620303 C404.442646,104.107911 404.438273,104.101969 403.699616,101.763938 C402.847995,99.0674941 402.794374,98.0751785 403.390935,96.1092271 C404.108752,93.7428917 403.958795,92.7718203 402.331101,89.2692558 C400.420816,85.1587993 400.281301,83.8972196 401.372102,80.544378 C402.082553,78.3600531 402.125374,78.0113119 401.783693,77.1861231 C401.279728,75.9693433 399.913584,74.4402822 398.832614,73.8813696 C397.490609,73.1874272 394.973806,73.5873361 392.315159,74.9184777 C391.110415,75.5217098 389.350076,76.2380143 388.403036,76.5111797 C386.138194,77.1643858 384.780122,77.8772135 382.556457,79.5813485 C378.858617,82.4154153 378.41824,82.4725136 372.935637,80.8221749 C370.354192,80.0499449 367.542058,78.9910668 364.586616,80.5464356 C360.663694,82.1451672 358.846594,82.3269597 353.957412,81.6061786 C351.691686,81.2721684 349.361591,80.7755913 348.779665,80.5032224 C347.396874,79.8560679 344.676767,77.1207543 343.959994,75.6572116 C343.211316,74.1261729 343.214329,69.19677 343.968223,64.4403927 C344.266092,62.5611691 344.890375,61.0748619 343.694524,59.4523965 C342.825992,57.7936957 340.972742,55.990404 339.844135,55.7072844 C339.469053,55.6133091 337.480428,55.6832219 335.423706,55.8616156 C330.668181,56.2735141 328.730732,56.9195907 322.378492,60.2117087 C313.878587,64.6168721 311.634207,65.0839366 297.386999,65.4239995 C289.687675,65.6079286 286.181053,65.8120009 283.253133,66.2450436 C281.111359,66.561811 278.190298,66.9113782 276.762431,67.0228744 C272.623349,67.3453764 268.514192,69.1560158 263.863327,72.7043336 C262.510418,73.7365079 260.446477,75.1367543 259.276209,75.8177167 C254.746979,78.4530812 250.194536,81.8240991 247.864989,84.2668552 C245.208861,87.0520627 243.048395,88.5941059 241.067651,89.1169812 C239.907846,89.4234764 239.33555,89.4033553 237.318097,88.985285 C234.364784,88.3732123 231.388322,88.3566123 228.56367,88.9400152 C226.055792,89.4579934 226.08483,89.4660122 222.09971,87.6148209 C220.159406,86.7134959 218.322614,86.0839434 216.985762,85.8657301 C214.988392,85.5398429 213.72518,85.6895985 211.85328,86.7382179 C208.069387,88.2452046 205.648246,88.7694885 202.44649,88.7774524 C200.010207,88.7823895 199.916737,88.7555824 198.198924,87.608648 C196.062481,86.1820972 193.871385,83.7506891 192.630163,81.4271539 C191.404968,79.1336433 188.216625,74.8339361 185.340977,71.5993198 C184.061739,70.1603852 182.635789,68.2792694 182.171768,67.4179632 C181.623317,66.3999258 179.834909,64.3565222 177.059875,61.5801152 C172.836332,57.3544992 172.756054,57.2938641 169.461997,55.7402085 C166.674056,54.4255921 165.863507,54.1676834 164.477691,54.155738 C161.66463,54.1297348 156.178108,53.0020565 153.44719,51.8880926 C151.795631,51.2144177 147.310539,50.2982499 145.804048,50.3221417 C145.169471,50.3336889 143.288172,50.4676071 141.622336,50.620516 C138.4526,50.9110422 137.576914,51.2200848 135.275679,52.8655254 C134.56173,53.3760181 133.299193,54.1566177 132.470721,54.6002129 C131.642249,55.043847 130.42188,55.9850287 129.758369,56.6929488 C128.695121,57.8272203 128.439935,57.9638188 127.609893,57.8288291 C126.263264,57.6103366 125.304876,56.8930892 124.722613,55.6681875 C123.969246,54.0835505 123.877146,52.171249 124.467437,50.3941628 C125.173569,48.2683732 128.422718,42.3346935 131.044571,38.3851097 C131.652828,37.4688914 133.452985,34.6430087 135.045191,32.1048433 C137.580349,28.0635147 139.829175,25.0957593 142.918822,21.7152424 C143.394823,21.1944764 144.69349,20.0753436 145.804048,19.2274177 C147.749441,17.7420534 149.871859,16.0009887 153.181721,13.1755622 C155.42216,11.2630089 159.188108,8.76426924 161.837367,7.43237008 C163.968658,6.3608945 165.253501,6.23861925 164.985998,3.69754605 C164.985998,1.29827392 164.072138,1.08028393 163.4405,0.666474232 C162.767475,0.225717372 159.755146,-0.0163848324 156.560839,0.000862482876 Z M157.451919,3.13957849 C159.686068,3.14965586 160.946287,3.39075591 160.946287,3.83541624 C160.946287,4.05255495 159.935238,4.76949574 158.699031,5.42811827 C156.260262,6.72748318 153.212878,8.95129058 149.216093,12.3504029 C147.814504,13.5423742 145.563856,15.3743315 144.215319,16.4206405 C141.937264,18.1881298 139.290671,20.9025195 136.098851,24.7483719 C134.691183,26.4444239 130.552407,32.7882269 129.48878,34.8786965 C129.135182,35.5737136 128.298039,36.8561898 127.628417,37.728686 C126.958827,38.6012212 125.985919,40.1586897 125.467582,41.1898283 C124.949266,42.2209669 123.96933,44.0373608 123.288245,45.2271418 C120.853827,49.4795564 120.279034,52.8443181 121.427871,56.1126613 C122.698385,59.7272814 126.628873,61.9518179 129.690461,60.7878789 C130.131143,60.620397 131.155733,59.8549478 131.966524,59.0881742 C132.777325,58.3214005 133.950976,57.4324844 134.573921,57.1127301 C135.196908,56.7928167 136.591943,55.9339769 137.675221,55.2051918 C139.521096,53.9632475 139.765292,53.8817908 141.568831,53.8738247 C142.627316,53.8702415 143.998075,53.75093 144.612506,53.6083746 C145.768002,53.3403073 150.259069,54.1114396 152.148639,54.9027024 C154.741822,55.988673 161.300538,57.341141 163.971439,57.341141 C164.964419,57.341141 166.044188,57.6952859 168.243703,58.7424715 C170.982228,60.0463372 171.441234,60.3970275 174.853774,63.7798538 C177.243327,66.148625 178.780185,67.9285739 179.265975,68.8871994 C179.67607,69.6963824 181.021846,71.4846513 182.256145,72.8627811 C185.030758,75.9607747 188.875837,81.183757 189.940454,83.2997105 C190.896851,85.2006365 195.997449,90.4073255 197.723544,91.2446999 C198.589178,91.6645613 199.653006,91.8299792 201.981394,91.9052388 C205.785116,92.028083 208.666812,91.494377 212.552984,89.9462568 C215.096655,88.9329573 215.46885,88.8566883 216.751154,89.0964039 C217.525246,89.2409906 219.559547,90.0093741 221.270364,90.8043402 C225.002406,92.5384598 226.150147,92.7324336 229.080206,92.1254181 C231.903414,91.5412198 233.994844,91.5435176 236.589597,92.1336497 C239.442929,92.7825551 241.689458,92.5578802 244.191584,91.3722798 C245.776183,90.6213551 246.776116,89.8246864 249.06888,87.4913562 C251.900317,84.6097438 256.735667,80.9978114 260.879331,78.6677061 C261.82182,78.1377024 263.94821,76.6854813 265.606397,75.4411475 C267.264615,74.1967727 269.845407,72.5834533 271.339781,71.8565394 C273.882757,70.6195712 274.298974,70.5110313 277.859301,70.1506608 C279.951585,69.9387794 283.02785,69.5581793 284.693686,69.3049242 C286.669962,69.0043628 291.331363,68.7530821 298.10727,68.5826524 C312.639462,68.2170256 314.459258,67.8279632 323.923989,63.0596395 C330.515822,59.7387337 331.83081,59.3104775 336.499998,58.9564779 C338.591745,58.7979946 338.918347,58.8425016 339.607473,59.3844908 C341.070152,60.5348103 341.253574,61.2766006 340.757858,64.0041494 C340.515738,65.3373613 340.294817,68.3092994 340.27013,70.6095401 C340.202917,76.3919577 340.470504,77.1248327 343.939416,80.5896478 C345.992008,82.6397794 346.88293,83.3194976 348.009998,83.7009721 C349.647775,84.255227 356.32095,85.3154609 358.18852,85.3183677 C360.078891,85.3212345 363.490673,84.5323875 365.763755,83.5651606 C368.08189,82.5788999 369.433789,82.9063822 371.898436,83.9334982 C378.16023,85.8287319 379.879002,85.6171465 384.167819,82.4231074 C386.227482,80.889202 387.365529,80.2647763 389.125362,79.7089295 C390.381915,79.3119643 392.288607,78.5482144 393.362644,78.0112824 C396.061394,76.6621015 397.280078,76.4692055 398.073241,77.2622593 C398.728491,77.9174177 398.728607,77.9157457 397.904487,80.8489251 C397.56878,82.0427275 397.457145,83.2519606 397.544357,84.7442542 C397.653389,86.6057177 397.884004,87.3611855 399.192755,90.1684938 L400.713565,93.4320927 L400.250534,95.2758426 C399.673845,97.5813807 399.665637,99.3283897 400.225836,101.490252 C401.14388,105.03265 401.4993,105.520548 407.426526,111.412745 C410.524033,114.491951 413.059086,117.190039 413.059086,117.409044 C413.059086,118.139706 409.538693,118.600337 404.54955,118.522289 C401.117285,118.468567 399.342817,118.573408 397.626668,118.93178 C396.357504,119.1969 393.630622,119.453603 391.568125,119.501782 C387.901789,119.587269 387.779112,119.569875 386.032302,118.719833 C384.925011,118.181027 383.499472,117.764477 382.282748,117.62511 C381.202936,117.501506 379.694865,117.240273 378.932447,117.04276 C377.212274,116.597574 375.108621,116.825229 373.53655,117.627165 C371.847122,118.488985 368.718627,121.712267 368.043938,123.285985 C367.349144,124.907187 366.792685,128.321123 366.988223,129.776146 C367.150265,130.984243 366.58602,131.757764 365.541496,131.757764 C364.830655,131.757764 361.611144,129.404067 360.909101,128.370704 C359.802927,126.74258 357.40798,124.396743 354.947273,122.532851 C350.816769,119.404074 346.923728,117.9738 337.751219,116.215549 C336.074541,115.894116 333.284924,115.27646 331.550684,114.843021 C328.897822,114.180305 327.75577,114.054372 324.358213,114.038442 C320.820519,114.022638 320.088278,114.102825 318.445791,114.694868 C315.984136,115.582133 313.780396,117.186857 309.586398,121.147986 C307.691328,122.937812 305.533443,124.703785 304.791424,125.072124 C303.977398,125.47641 302.272851,125.906488 300.492408,126.156553 C298.869614,126.384293 296.659067,126.820344 295.58013,127.125764 C293.320452,127.765428 290.413362,127.715131 285.109386,126.942621 C281.956383,126.483655 281.893143,126.485952 279.773179,127.129873 C278.593133,127.488255 276.715142,128.013565 275.599696,128.298682 C274.48426,128.583915 272.495793,129.23224 271.181321,129.739102 C266.902946,131.388856 263.372775,135.090059 261.603722,139.776834 C260.029513,143.947412 257.706161,146.742018 254.347463,148.503766 C252.635371,149.401903 252.479714,149.298695 252.248372,147.116846 C251.984293,144.626902 251.56677,143.647872 250.291283,142.528053 C249.064929,141.451399 246.441853,140.4124 244.950956,140.412674 C243.89147,140.412874 240.254184,141.085368 239.221681,141.472418 C238.927679,141.582685 237.778347,142.24538 236.667789,142.945773 C233.842485,144.72756 231.42815,147.145282 230.574264,149.049073 C229.763094,150.857579 228.666181,152.387995 227.876315,152.810645 C227.429964,153.049532 227.090612,152.897375 226.034476,151.983434 C224.323153,150.499818 222.480324,150.041894 219.992391,150.475101 C215.571476,151.244892 214.466577,151.919219 213.071574,154.689382 C212.672152,155.482552 210.513825,158.40131 208.274545,161.177478 C206.035213,163.953646 203.82553,167.0039 203.364322,167.955716 C201.928721,170.91864 199.681065,176.486474 198.764855,179.351563 C198.2825,180.859907 196.359539,185.14543 194.490537,188.874847 C192.621576,192.60419 190.509641,196.952327 189.798453,198.536001 C188.174868,202.151295 182.768466,210.269475 181.336248,211.242636 L181.334193,211.238517 C180.083878,212.087916 179.582715,212.114971 178.837925,211.370213 C177.539806,210.072204 177.707359,208.338955 179.566436,203.828547 C181.154913,199.974651 181.369311,198.652473 180.722986,196.706655 C179.743831,193.758945 174.530712,189.941586 172.137303,190.420223 C171.237488,190.600163 169.595633,189.437327 169.603999,188.623802 C169.606106,188.360272 169.992525,187.039928 170.464207,185.691506 C171.468092,182.821433 171.608692,179.589501 170.863449,176.462473 C170.599602,175.355835 170.329096,172.283845 170.202857,168.964014 C169.92664,161.704642 169.675437,160.976836 166.263982,157.527015 C164.46784,155.710755 163.400756,154.889497 162.043168,154.277826 C159.870595,153.298933 157.731245,152.810645 155.60184,152.810645 C153.391652,152.810645 151.925295,152.145642 150.977675,150.713798 C150.221053,149.570369 150.187557,149.375016 150.154504,145.472698 C150.109681,140.397566 149.77507,139.544954 146.586053,136.381535 C142.695509,132.522108 140.741497,132.033483 132.188783,132.77429 C125.447878,133.358137 119.29597,133.216569 113.004768,132.335995 C110.735806,132.018354 106.984967,131.569733 104.67015,131.337979 C99.5423148,130.824701 98.4043727,130.425798 93.3844699,127.380917 C89.3589976,124.939121 87.5958623,124.152051 82.1975671,122.386752 C80.3730994,121.790126 76.5437626,120.358809 73.6880295,119.205466 C70.8323397,118.052154 66.353605,116.445323 63.7358832,115.635264 C61.1181224,114.825121 57.0996537,113.506715 54.8065286,112.705022 C52.5134004,111.903361 48.6193088,110.744634 46.1529357,110.130771 C41.5906047,108.995265 38.6416081,108.033492 33.7374487,106.08522 C32.2302664,105.486455 29.2108126,104.589371 27.0285999,104.091264 C22.144025,102.976208 21.7180662,102.817772 20.5152535,101.669286 C18.961963,100.186185 18.1609824,98.3237579 18.1609824,96.1956515 C18.1609824,92.690746 16.9259594,90.1059538 13.9195909,87.3102738 C11.4774657,85.0393803 10.4514192,84.4194227 7.28071038,83.3038257 C3.62883308,82.0188757 2.74131122,81.2416992 3.53939527,80.0237658 C4.142213,79.1038052 6.18601688,78.3491961 10.68041,77.3877827 C18.3990537,75.7367266 21.0999925,74.9664615 23.7441443,73.6591316 C26.2877591,72.4015376 27.3489072,71.6146545 33.6983485,66.2820829 C40.2941881,60.7425669 43.0547261,59.8485695 50.1782459,60.9463263 C53.7728062,61.5015367 58.0275444,61.4906207 60.7909863,60.9216338 C65.6724077,59.9164573 72.3207532,56.7528495 76.921036,53.2441522 C81.8700011,49.469617 84.5121236,47.9337361 87.7971924,46.9268465 C89.3971042,46.4365034 91.1622667,45.7637546 91.7175475,45.4308601 C93.2287643,44.5257517 96.7055676,41.0899709 99.0767025,38.1608141 C103.537719,32.6497298 107.030021,29.7456206 117.388161,22.9293177 C119.6017,21.4727032 122.049784,19.4748487 124.743191,16.9268483 C130.152922,11.809106 131.132678,11.1954582 138.282308,8.45301617 C140.175692,7.72673969 143.230326,6.42560688 145.069363,5.56187216 C148.874581,3.77471164 150.228639,3.45070299 154.904202,3.20780134 C155.85513,3.15836467 156.707203,3.13664216 157.451919,3.13957849 Z M371.95606,144.676346 L368.060406,144.797749 C363.751117,144.933375 363.077955,145.126652 360.592182,146.929585 C356.768408,149.702929 354.690665,151.547604 353.626089,153.11519 C352.999046,154.038434 351.708829,155.678052 350.759387,156.759479 C347.387896,160.601902 346.451751,163.491128 347.392617,167.163484 C348.208097,170.346256 349.124823,171.785033 352.25139,174.781291 L355.159248,177.565435 L354.955513,179.102573 C354.546113,182.188585 353.796508,182.944996 350.812902,183.281875 C347.941152,183.605963 346.232506,184.828663 345.616621,186.998175 C345.295423,188.129657 345.184409,188.207484 340.846345,190.397582 C334.363861,193.670266 333.080556,194.982035 332.705179,198.712969 C332.471298,201.035986 332.913403,203.471239 334.153961,206.684713 C335.916681,211.251265 336.407107,213.709824 336.236583,217.13399 C336.128499,219.302743 336.217459,220.804407 336.549394,222.422417 C336.941334,224.333298 336.960521,225.047587 336.670807,227.052363 C336.482486,228.356071 336.327135,229.819712 336.327135,230.305671 C336.327135,231.492191 335.473744,232.505336 333.814398,233.285305 C333.059272,233.640252 331.782142,234.53192 330.976513,235.266912 C330.170896,236.001914 328.805331,236.982535 327.943132,237.446074 C327.080965,237.90954 325.867802,238.719398 325.245184,239.246615 C324.622566,239.773832 323.55759,240.473761 322.878569,240.802275 C321.655228,241.394761 321.632901,241.396868 320.404934,240.853721 C318.911972,240.193343 317.455688,238.602189 316.533967,236.622973 C315.704305,234.841428 315.692989,234.250112 316.416663,230.402389 C317.495516,224.665636 317.961571,215.58658 317.270707,213.763387 C316.678097,212.199373 315.89115,211.654192 314.231152,211.654182 C312.558235,211.654182 311.933035,212.153037 311.257439,214.02266 C310.433277,216.303471 306.526012,223.815763 305.771001,224.57071 C305.314798,225.026853 304.051934,225.824184 302.966043,226.342435 C301.880152,226.860697 300.334538,227.904659 299.531354,228.663587 C298.114172,230.002686 297.739585,230.16562 295.160321,230.554662 C293.585036,230.792147 292.712522,231.502632 291.517787,233.521936 C290.98414,234.423824 290.147787,235.809227 289.659469,236.602397 C289.139951,237.446348 288.280449,239.766679 287.585076,242.195379 C286.931554,244.478097 286.142932,246.842761 285.833777,247.448817 C284.202712,251.748142 278.480065,257.963563 278.86563,265.445945 C278.753057,267.66686 278.57972,270.846556 278.480802,272.512271 C278.381916,274.177976 278.423978,276.079755 278.575463,276.7389 C278.805698,277.73977 278.695412,278.548238 277.908697,281.642521 C276.778815,286.086796 276.569326,286.649518 275.459759,288.19441 C274.987172,288.852396 273.512501,292.087868 272.181476,295.384205 C270.827365,298.73756 269.056616,302.54825 268.162344,304.035006 C266.461083,306.863494 266.122996,307.555089 264.898464,310.724766 C264.408649,311.992189 264.114394,313.328759 264.102045,314.329946 C264.079454,316.339388 265.125317,320.212376 266.408991,322.87992 C269.360987,329.014427 270.102321,334.466274 268.551292,338.611451 C268.222687,339.489643 267.109263,341.558929 266.075602,343.208472 C261.301586,350.827302 261.127468,352.505207 264.414855,359.322743 C265.296463,361.151035 266.627309,364.082721 267.372099,365.8376 C268.116931,367.592458 269.138981,369.627387 269.641998,370.35848 C270.673868,371.858058 273.728491,380.340773 273.731104,381.713164 C273.732052,382.217013 274.078359,383.104624 274.525458,383.748293 C279.237362,390.531978 280.367917,392.70307 280.367917,394.975389 C280.367917,396.079099 280.596867,396.891043 281.267237,398.156686 C283.220332,401.843929 283.603443,402.715821 284.582556,405.700407 C285.141028,407.402828 285.713618,409.770285 285.854366,410.960029 C285.994861,412.149815 286.496793,414.939121 286.96976,417.160047 C287.442716,419.380962 287.915008,422.042849 288.0193,423.074031 C288.123802,424.105171 288.457622,425.63467 288.760159,426.473439 C289.562964,428.696703 289.562226,436.052667 288.760159,438.019493 C288.356892,439.008426 288.001672,441.574944 287.434856,447.590114 C286.151698,461.206949 284.678524,469.207203 281.899022,477.668309 C280.184307,482.887948 278.697603,485.70963 274.840323,491.06223 C270.750575,496.737455 266.940109,505.884445 268.158224,507.102425 L268.156169,507.10448 C268.226754,507.175185 294.284582,507.225387 327.395724,507.258807 L327.395724,504.120737 L271.677289,504.120737 L271.852207,503.472539 C272.309612,501.766103 275.991225,494.9984 277.933394,492.294823 C282.019245,486.607093 283.670646,483.267571 285.677383,476.647663 C287.934585,469.201524 289.43055,460.582962 290.620522,448.164225 C291.144971,442.690728 291.552737,439.761245 291.933488,438.708844 C292.740106,436.476697 292.737894,428.164798 291.929368,425.740881 C291.624934,424.828046 291.291588,423.30156 291.186453,422.349702 C291.08154,421.397885 290.5543,418.514359 290.01549,415.939791 C289.476648,413.365235 289.108268,411.070443 289.196438,410.840681 C289.605995,409.77354 286.181148,399.896225 284.596971,397.576401 C284.167341,396.94723 283.829358,396.057026 283.829358,395.547446 C283.829358,392.885759 281.623037,387.938204 278.738043,384.133088 C277.542265,382.556062 277.03988,381.613759 276.883844,380.65343 C276.494158,378.254504 273.534196,370.279599 272.449011,368.704048 C271.880856,367.879219 270.954837,366.060577 270.391076,364.662616 C269.827316,363.264613 268.773666,360.939615 268.049159,359.497657 C266.267484,355.951846 265.369734,353.483668 265.369734,352.135014 C265.369734,350.906488 266.396937,348.764632 268.678879,345.237417 C270.401339,342.575013 271.844453,339.442581 272.259679,337.465282 C273.178249,333.091259 272.184669,327.544033 269.442372,321.74198 C268.392031,319.519632 267.388557,315.961852 267.388557,314.457533 C267.388557,313.019673 269.045152,308.768233 270.510446,306.446691 C272.164112,303.82662 272.709581,302.669642 275.208693,296.495395 C276.457396,293.410425 277.806892,290.455941 278.207093,289.931157 C279.322171,288.469329 280.029945,286.584723 281.119061,282.173425 C282.061159,278.357236 282.09711,278.030134 281.777598,276.218288 C281.568605,275.032074 281.521685,273.491143 281.652065,272.178911 C281.768042,271.012461 281.958448,268.307747 282.076005,266.166155 C282.257066,262.863844 282.404989,262.007903 283.055572,260.540259 C284.442725,257.093957 287.223586,252.68937 289.06885,248.282212 C289.373115,247.568355 290.136492,245.167374 290.766633,242.946459 C291.505428,240.342465 292.205627,238.498696 292.736071,237.754739 C293.188565,237.120174 293.776749,236.171592 294.044916,235.647599 C294.756927,234.256886 295.55107,233.573077 296.450643,233.571328 C298.078684,233.56802 299.514201,232.925805 300.965733,231.554731 C301.796776,230.769716 303.39994,229.709624 304.655597,229.114231 C307.703624,227.669007 309.132787,226.021486 311.574359,221.134259 C312.634467,219.012411 313.67188,216.887602 313.87924,216.411715 C314.246177,215.569438 314.258578,215.595029 314.358739,217.420013 C314.501647,220.02113 313.943281,226.162738 313.210419,230.042279 C312.154989,235.629056 312.913624,238.374291 316.474288,241.839388 C319.968729,245.240134 322.947194,245.309901 326.813324,242.08014 C327.506548,241.501003 328.719479,240.69833 329.509218,240.29812 C330.299031,239.897975 331.60873,238.94285 332.421186,238.174523 C333.233632,237.406239 334.479173,236.528394 335.187043,236.223775 C336.876924,235.49658 339.129417,233.085695 339.317305,231.803711 C340.169568,225.983589 340.258929,224.074868 339.765932,222.179601 C339.600824,221.545025 339.481676,219.32412 339.498398,217.243045 C339.535149,213.050837 338.92075,209.924546 337.191462,205.513849 C336.063035,202.635663 335.681283,200.623682 335.919663,198.815861 C336.188884,196.775527 337.379593,195.759053 342.498862,193.198193 C346.935055,190.978984 348.315254,189.867573 348.637663,188.255463 C348.837184,187.257975 349.710152,186.557814 350.755277,186.557814 C351.162601,186.557814 352.268912,186.356972 353.214498,186.111279 C356.198779,185.336031 357.740483,183.21669 358.153528,179.318639 C358.419988,176.804167 357.992887,175.976451 354.916411,173.044544 C351.882303,170.153095 350.64812,168.08501 350.30253,165.317682 C350.137685,163.998327 350.217289,163.547968 350.852003,162.257798 C351.261434,161.425478 352.254056,159.964534 353.056038,159.012718 C353.858021,158.060901 355.228927,156.342697 356.103833,155.193526 C356.978698,154.044365 358.43632,152.558758 359.343015,151.892891 C360.249753,151.227098 361.640784,150.201637 362.434021,149.612902 C364.254988,148.261213 365.541485,147.913124 368.716878,147.911133 L371.252247,147.909078 L378.092807,151.343464 C381.855363,153.232568 385.776905,155.074841 386.808143,155.438397 C388.779509,156.133458 390.778986,156.23676 397.336501,155.977529 C399.627979,155.887102 400.454565,155.965329 401.353579,156.362335 C403.16698,157.163186 404.891505,158.762958 406.477821,161.113684 C408.114924,163.539519 411.903516,167.626602 413.569447,168.764415 C415.042,169.770154 417.026431,170.336932 420.268005,170.680185 C422.8954,170.958085 423.237787,171.082133 428.633494,173.700971 C432.198204,175.431144 435.369973,176.749929 437.289141,177.302042 C438.954956,177.781269 441.226688,178.491692 442.337246,178.880333 C443.447761,179.268742 445.377665,179.796412 446.625968,180.053251 C449.913787,180.730075 453.189783,182.072334 454.38436,183.232483 C455.404239,184.22285 455.864983,184.973013 458.913864,190.597192 C459.816861,192.262854 460.966846,194.288817 461.469811,195.09955 C463.034032,197.621312 462.6397,199.149505 459.358371,203.281186 C458.290076,204.626342 457.289995,206.054488 457.137868,206.454244 C456.531476,208.047242 456.347612,209.929624 456.64191,211.520431 C457.217756,214.634911 457.841586,215.582281 462.087192,219.780263 C466.360678,224.005838 467.426497,225.348276 468.7343,228.169726 C469.702012,230.257281 470.461754,235.025107 470.458846,238.991451 C470.457687,241.586953 469.442117,247.543575 468.563491,250.103329 C467.858181,252.157833 468.135916,254.137839 469.878511,259.466102 C471.33724,263.926496 471.395602,264.220337 471.051529,265.367749 C470.848194,266.046437 470.306929,266.896468 469.814712,267.308204 C467.658397,269.112527 463.646851,273.101575 462.325909,274.755217 C461.421964,275.886941 460.62644,277.294005 460.208295,278.504451 C459.481007,280.609969 458.922093,284.805328 458.922093,288.163551 C458.922093,290.072157 458.822533,290.449588 457.917829,291.951873 C455.360849,296.197877 453.840903,297.501343 446.368727,301.853789 C443.588899,303.473021 439.539747,307.685785 438.447756,310.095089 C437.391525,312.425354 437.145811,313.392911 436.393941,318.227333 C434.844334,328.191284 435.8991,333.086529 440.629158,337.907697 C443.204018,340.531993 444.248932,341.114438 449.828103,343.021211 C452.821424,344.044364 453.151304,344.097138 455.886647,343.990421 C458.521765,343.887688 458.976767,343.781477 461.015009,342.794862 C463.058066,341.805896 463.56594,341.365188 466.865697,337.728675 C472.723761,331.27286 474.888979,328.403525 476.249855,325.29366 C478.151068,320.94899 481.880623,313.796618 483.38881,311.599313 C485.129298,309.063654 488.573491,306.385342 492.38402,304.607063 C493.891175,303.903678 496.053685,302.630871 497.189288,301.777648 C498.324849,300.924467 500.596592,299.474606 502.237393,298.555208 C505.088301,296.95807 505.308558,296.886501 507.238157,296.890483 C508.828941,296.89554 509.622663,297.065745 510.977416,297.695063 C514.721965,299.43436 517.530811,302.369417 521.022166,308.187547 C524.968227,314.763553 526.001909,317.548908 526.983984,324.283307 C527.810084,329.947701 529.005367,334.545818 531.038108,339.8605 C534.308362,348.410464 535.100146,351.284119 536.378435,359.2857 C537.172389,364.25577 538.884228,370.520098 540.393458,373.971899 C540.929877,375.198834 541.78646,377.291045 542.297042,378.622421 C542.80754,379.953839 543.657022,381.770193 544.184157,382.659733 C545.23335,384.430374 546.900629,389.119456 546.900629,390.296062 C546.900629,390.703383 546.506129,392.886865 546.023953,395.148248 L545.147276,399.259637 L545.231643,408.640942 C545.326862,419.342518 545.311616,419.435622 543.303372,420.411291 C542.096278,420.999193 541.649884,421.07288 540.360532,420.427758 C537.920034,419.558362 535.23081,419.422189 533.159831,420.063528 C531.800578,420.48444 531.132021,420.930121 529.739557,422.349702 C527.111972,425.028509 525.582216,427.901627 523.522553,434.033626 C521.840775,439.040149 521.719372,439.584455 521.546941,442.846983 C521.36371,446.314282 521.360275,446.330665 520.098159,448.419389 C518.634573,450.841473 517.934005,451.43693 514.589078,453.102835 C512.589116,454.098849 511.63882,454.82813 509.378403,457.10105 C504.780475,461.724147 504.142557,463.901919 504.778936,472.83258 C504.925321,474.886494 505.959299,477.589639 504.307666,479.114903 C503.275606,480.230981 501.3651,484.617089 501.05408,486.584557 C500.428891,490.344433 496.012677,493.397469 493.594085,496.912421 C492.866153,497.943561 491.906038,499.215241 491.460013,499.737717 C491.014399,500.259845 490.434897,501.458028 490.171745,502.402512 L489.694311,504.120737 L451.659659,504.120737 L451.659659,507.29585 L491.169846,507.29585 L492.065045,506.277258 C492.557621,505.716517 492.960245,505.019654 492.960245,504.727773 C492.960245,503.695759 493.838018,501.728301 494.762994,500.688406 C495.278265,500.109058 496.151897,498.961025 496.705679,498.136785 C498.807435,495.198831 503.484779,492.117823 504.208885,487.220397 C504.208885,486.059964 506.159157,481.916599 507.299891,480.654106 C508.792832,479.001739 508.270069,477.409046 508.075732,475.16196 C507.718636,469.09268 507.756326,465.839276 508.201265,464.299073 C508.663896,462.697751 510.932509,459.597832 512.704017,458.146391 C513.418209,457.561154 515.130522,456.497154 516.50913,455.782032 C519.826694,454.061089 522.210547,452.240804 522.337186,451.329055 C522.391302,450.939413 522.603762,450.425123 522.808446,450.186995 C524.042692,448.754477 524.50017,447.148699 524.699691,443.552801 C524.867982,440.519467 525.044596,439.559507 525.81303,437.496827 C526.315394,436.148405 526.926812,434.265275 527.173316,433.313416 C527.737656,431.134222 528.638019,429.304993 530.544205,426.454917 C531.75014,424.651868 532.326608,424.069465 533.472642,423.497925 C535.275201,422.597438 536.584131,422.599851 539.284229,423.506153 C540.46575,423.902727 541.758538,424.226374 542.157106,424.226374 C543.141256,424.226374 545.681966,422.923476 546.834776,421.827026 C548.403812,420.33497 548.495175,419.598609 548.411145,409.250032 L548.335008,399.897542 L549.238437,395.426043 C549.923632,392.040111 550.095168,390.569959 549.954599,389.372134 C549.697696,387.18665 548.520821,383.855704 547.024108,381.079378 C546.331811,379.79515 545.382211,377.717731 544.914723,376.463835 C544.447204,375.209907 543.683785,373.340368 543.216929,372.309228 C541.919453,369.443623 540.341144,363.568326 539.545589,358.639566 C538.210749,350.369483 537.464632,347.595875 534.468677,339.786424 C532.097278,333.60497 531.166233,330.138934 530.171726,323.789446 C529.238573,317.831665 528.500811,315.302981 526.578577,311.475845 C522.203498,302.76538 517.605411,297.323343 512.574364,294.896518 C510.225304,293.763319 510.005637,293.713306 507.341057,293.713306 C504.572493,293.712631 504.546973,293.718184 501.731141,295.153736 C500.175318,295.946916 497.663372,297.484823 496.147977,298.571665 C494.632614,299.658476 492.19179,301.112192 490.725338,301.800278 C485.979654,304.027231 481.859887,307.62945 479.501385,311.613715 C478.036408,314.088404 475.105359,319.924098 473.580724,323.40464 C472.282404,326.368565 470.049414,329.445949 465.340778,334.753161 C460.978405,339.669973 459.012781,340.870863 455.333064,340.870863 C452.790141,340.870863 446.362753,338.590959 444.111177,336.891171 C440.826392,334.411372 438.961973,330.327682 438.954007,325.583803 C438.947759,322.361016 439.937673,315.530036 440.781443,312.963602 C441.858315,309.688442 444.490378,306.721789 448.282595,304.510345 C454.766016,300.729598 457.482088,298.530787 459.741145,295.229878 C461.513622,292.639907 462.089384,291.033192 462.093367,288.663586 C462.100447,285.692002 462.591442,281.600209 463.147026,279.866686 C463.964477,277.316214 467.625238,272.980436 470.983621,270.584154 C472.493357,269.506867 472.975343,268.950372 473.660981,267.501639 C475.007052,264.657379 475.001257,264.55494 473.072417,258.708848 C472.111595,255.79678 471.325238,253.040756 471.325238,252.584972 C471.325238,252.129239 471.516667,251.267303 471.751223,250.669212 C471.985862,250.071143 472.519646,247.828977 472.93659,245.687385 C473.609562,242.231095 473.677555,241.325056 473.545742,237.61276 C473.335231,231.675355 472.765939,228.88569 471.107089,225.669552 C469.89734,223.324157 469.29393,222.587627 465.41486,218.720519 C462.954291,216.267523 460.834053,213.894841 460.519051,213.240711 C459.761291,211.666993 459.588659,208.835355 460.181543,207.688891 C460.432788,207.203248 461.411501,205.834366 462.354716,204.647529 C464.800113,201.570525 465.340999,200.38784 465.482769,197.809617 L465.602127,195.644857 L463.964024,192.905985 C463.063461,191.398927 461.933663,189.386344 461.453342,188.434486 C458.960362,183.494306 456.910604,180.764432 454.738326,179.489433 C453.083785,178.518263 449.979451,177.407315 447.887472,177.036585 C446.896558,176.861018 444.788058,176.279647 443.201573,175.746372 C441.615088,175.21315 439.149177,174.438017 437.72131,174.021983 C436.293443,173.605929 432.593601,172.040808 429.499877,170.54437 C424.038905,167.902995 423.790884,167.813611 420.990341,167.515355 C419.403856,167.346447 417.651999,167.068863 417.096742,166.898037 C414.903549,166.223478 411.993393,163.466064 409.38568,159.590948 C408.74516,158.63909 407.392388,157.068596 406.379041,156.098943 C402.976773,152.844054 400.930777,152.263431 394.834059,152.831221 C391.211608,153.168743 390.725924,153.154983 388.919572,152.668666 C387.83682,152.377143 383.580857,150.460488 379.455157,148.407059 L371.95606,144.676346 Z" id="path1029" fill-rule="nonzero"></path>
                <text id="HOME" font-family="AbhayaLibre-ExtraBold, Abhaya Libre ExtraBold" font-size="30" font-weight="600">
                    <tspan x="348.329189" y="513.427711">HOME</tspan>
                </text>
            </g>
        </g>
    </g>
</svg>